<?xml version="1.0" encoding="UTF-8" standalone="no"?>
<svg
   xmlns:dc="http://purl.org/dc/elements/1.1/"
   xmlns:cc="http://creativecommons.org/ns#"
   xmlns:rdf="http://www.w3.org/1999/02/22-rdf-syntax-ns#"
   xmlns:svg="http://www.w3.org/2000/svg"
   xmlns="http://www.w3.org/2000/svg"
   xmlns:sodipodi="http://sodipodi.sourceforge.net/DTD/sodipodi-0.dtd"
   xmlns:inkscape="http://www.inkscape.org/namespaces/inkscape"
   version="1.0"
   height="800"
   width="900"
   id="svg2"
   inkscape:version="0.91 r13725"
   sodipodi:docname="hand_gelb.svg">
  <sodipodi:namedview
     pagecolor="#ffffff"
     bordercolor="#666666"
     borderopacity="1"
     objecttolerance="10"
     gridtolerance="10"
     guidetolerance="10"
     inkscape:pageopacity="0"
     inkscape:pageshadow="2"
     inkscape:window-width="1920"
     inkscape:window-height="996"
     id="namedview6"
     showgrid="false"
     inkscape:zoom="0.295"
     inkscape:cx="-41.525424"
     inkscape:cy="400"
     inkscape:window-x="0"
     inkscape:window-y="0"
     inkscape:window-maximized="1"
     inkscape:current-layer="svg2" />
  <metadata
     id="metadata7">
    <rdf:RDF>
      <cc:Work
         rdf:about="">
        <dc:format>image/svg+xml</dc:format>
        <dc:type
           rdf:resource="http://purl.org/dc/dcmitype/StillImage" />
        <dc:title />
      </cc:Work>
    </rdf:RDF>
  </metadata>
  <defs
     id="defs5" />
  <path
     id="path2161"
     d="m 193.02809,735.63787 c 5.03553,-10.33309 5.59598,-12.08601 6.5591,-20.5168 0.69205,-13.64387 6.37421,-27.68325 1.97187,-40.92474 -8.03432,-7.1673 -20.03637,-13.62288 -29.77722,-19.62956 -10.36633,-5.7189 -12.97842,-7.54619 -15.32796,-10.72265 -10.03992,-10.08778 -17.255,-18.77789 -29.80263,-25.75289 -19.38995,-10.67199 -25.65088,-17.12572 -26.3378,-27.14873 -0.19991,-2.91684 -0.970083,-8.35217 -1.711483,-12.07855 -0.7414,-3.72638 -1.12889,-8.42053 -0.8612,-10.43147 0.76229,-5.72589 -0.57509,-17.99504 -2.88143,-26.43368 -1.15742,-4.23503 -2.42989,-10.61191 -2.82763,-14.1708 -0.39774,-3.55891 -1.1607,-8.52852 -1.69546,-11.04358 -0.53476,-2.51506 -1.13728,-13.03312 -1.33877,-23.37337 -0.73925,-12.72407 -1.71327,-18.38768 1.99693,-29.49659 0.24935,-2.01989 2.03101,-6.5257 2.37636,-8.87721 0.94219,-6.41533 0.42605,-7.68211 4.03211,-16.63186 3.606073,-8.94974 5.367743,-6.38615 10.392163,-19.16713 10.06781,-25.26288 12.26348,-33.47503 6.46103,-57.86582 -1.38032,-5.0354 -3.19124,-14.243 -4.02441,-20.46143 -0.8331,-6.21839 -1.93802,-12.23188 -2.45545,-13.36335 -0.51736,-1.13142 -0.97705,-4.39855 -1.0216,-7.2603 -0.0446,-2.86174 -0.91729,-8.58218 -1.93938,-12.71209 -1.02209,-4.12991 -1.94276,-12.79875 -2.046,-19.26411 -0.49019,-11.60703 -3.397753,-22.42498 -3.238693,-34.0168 -0.12497,-3.39956 0.13803,-8.07556 0.584333,-10.39114 0.4464,-2.31556 0.26831,-8.17812 -0.395563,-13.02781 -1.42013,-16.52394 1.284703,-33.34894 13.732343,-44.92555 32.32022,-23.23899 66.2021,-3.37564 71.13044,34.22544 -0.34933,1.42357 -0.58484,10.24269 -0.52343,19.59798 -1.85398,15.87854 -2.15288,35.28571 -6.82518,50.35751 -4.66938,30.34417 -8.76898,60.79949 -7.00157,91.83184 3.94831,23.80546 20.01945,35.49315 42.23022,22.49898 1.33705,-1.40463 6.35062,-2.15222 16.6729,-2.4862 2.42833,-0.0786 7.13734,1.33122 14.23711,4.26231 13.83279,5.7551 20.67973,5.09412 25.97342,-9.59282 7.68256,-17.72824 11.94339,-36.44786 15.58619,-55.41834 0.20439,-2.54122 1.15209,-3.64954 6.96875,-8.14909 7.1239,-5.51086 15.81768,-9.10018 27.65011,-11.41565 3.70063,-0.72419 7.85102,-1.98549 9.22307,-2.80292 26.73278,-5.98844 16.28141,-25.25438 15.89159,-45.91774 -0.0326,-1.66803 0.51494,-7.50858 1.21679,-12.97895 0.70176,-5.47043 1.28918,-12.68236 1.30531,-16.02657 0.0277,-5.76282 0.45295,-7.01179 8.14028,-23.91323 9.51765,-13.86348 4.43179,-22.58695 11.08296,-36.63234 2.78092,-5.78688 7.5325,-16.37848 10.55896,-23.53693 4.69102,-11.09529 5.45047,-13.67111 5.14825,-17.46072 -0.39273,-4.92352 1.83158,-7.16354 5.37948,-14.76726 2.93994,-6.30079 2.27073,-5.32176 1.53571,-12.60068 -2.79692,-16.589952 -5.60618,-23.491342 3.09567,-39.048188 5.9786,-11.57401 6.9303,-13.65625 9.83706,-15.63468 1.8253,-1.24236 6.82236,-4.87132 11.1046,-8.064356 11.73823,-7.35456 26.22845,-16.17013 38.85062,-10.27517 7.72267,3.8772 9.05248,4.89227 12.68368,9.6816 5.62799,7.422916 6.16876,11.491616 2.75773,20.750156 -0.77759,21.186806 -11.2693,34.674208 -19.83,54.208568 -8.32149,20.21475 -9.03529,27.66749 -15.42699,44.21174 -6.39169,16.54426 -4.6838,9.62326 -10.13981,21.96526 -9.3332,21.11261 -10.14753,22.24067 -10.3084,28.00141 -15.65479,25.47703 -10.63514,58.75039 -26.14119,83.26561 -3.36729,2.84128 -3.67205,3.42283 -5.44894,10.39637 -1.03517,4.06272 -1.97373,8.96398 -2.08563,10.89171 0.71296,19.07439 21.44368,41.2302 37.19102,49.98265 10.65541,5.9685 15.45294,9.99116 18.16476,11.43142 3.67073,1.94953 9.55573,5.17557 11.79052,6.7122 2.6954,1.85335 4.77248,0.90849 12.11574,8.68642 7.34325,7.77794 5.45154,6.23795 11.70856,14.53026 6.55219,12.50335 7.11379,26.40792 11.11457,39.73471 2.83857,33.19705 48.13513,18.0565 50.92184,52.51973 -0.83139,2.49814 -1.6462,8.23091 -1.8108,12.73944 -0.39435,10.61333 -0.50954,19.93579 -7.54597,28.18386 -2.68737,3.51263 -7.5055,10.71059 -11.18453,16.98584 -8.34417,8.77878 -7.23229,30.74132 7.46019,30.54482 4.38822,-0.97232 5.22092,-0.793 12.26978,2.64205 11.87032,5.78466 14.16878,10.39193 11.45443,22.96026 -3.03868,14.06956 -4.80958,16.63817 -18.82268,27.30064 -8.31051,6.3235 -14.37026,10.11341 -18.90218,11.82208 -3.66859,1.38323 -9.15996,4.3236 -12.2029,6.53424 -3.04294,2.21064 -9.0392,5.50253 -13.32515,7.31525 -8.55971,4.51524 -18.4516,13.60571 -26.00423,20.51909 -17.83227,15.80062 -38.49892,30.31126 -59.62475,41.26273 -7.26526,2.85486 -12.75671,8.42036 -19.96824,11.40506 -13.8258,9.50425 -29.7461,12.30135 -43.89851,21.61337 -16.08594,10.69936 -35.35049,11.45989 -53.25202,16.28512 -17.54796,3.78617 -35.99905,-4.14504 -53.50707,-6.3749 -2.68696,-0.26091 -7.24358,0.1391 -10.12593,0.88887 -3.94071,1.0251 -6.63383,0.94579 -10.8577,-0.31978 -17.94448,-7.1246 -15.1227,-31.03029 -8.11207,-45.64207 z M 572.16108,635.26718 c -2.09527,-5.73406 -3.80287,-11.82624 -3.86952,-13.51088 -0.14493,-3.65877 4.13913,-15.88447 8.97665,-19.22552 18.99326,-13.11776 64.29614,-19.51304 88.38857,-17.25696 1.591,0.14899 6.11678,-0.10162 10.15469,-1.12598 4.03792,-1.02437 7.77423,-1.65168 8.3028,-1.39409 1.9035,0.92762 18.57082,-1.30104 25.00991,-3.3442 3.61872,-1.14824 8.9945,-2.42087 11.94618,-2.82809 6.92936,-0.95594 17.11632,-4.87095 21.74296,-8.35617 7.0544,-5.31393 32.33909,-14.35855 39.8997,-14.27258 2.43383,0.0277 6.23123,-0.0765 8.43859,-0.23144 2.81024,-0.19731 5.6406,0.5112 9.44105,2.36322 4.7251,2.30265 6.42616,2.97068 7.41943,7.01159 4.20724,17.11621 11.76713,37.01331 -7.97647,47.0625 -9.45887,4.81439 -19.47208,5.82076 -26.55082,11.34992 -15.96307,12.46863 -25.92897,4.69694 -40.8611,7.76574 -17.21383,3.53773 -35.21532,3.76384 -52.67641,2.39213 -1.93659,-0.15213 -6.18367,0.0686 -9.45455,0.66306 -3.27096,0.59441 -9.57048,0.61037 -13.99896,0.0355 -4.85815,-0.63076 -9.8969,-0.51474 -12.70331,0.29242 -2.55827,0.73579 -6.95754,1.30324 -9.77609,1.26102 -4.37978,-0.0656 -18.04919,2.71926 -29.46751,6.0034 -1.77892,0.51165 -7.43618,2.55869 -12.25935,5.1535 -11.81952,6.35882 -16.06834,1.2976 -20.12644,-9.80804 z m -4.40586,-146.97919 c -2.17856,-3.9404 -3.768,-7.96217 -6.60143,-11.56752 -6.79542,-8.61464 -7.51976,-13.60678 -1.62878,-22.24958 11.8025,-16.73059 29.9103,-30.09088 48.91849,-37.46456 9.21819,-3.06248 18.13625,-5.60089 19.81794,-5.6409 1.68158,-0.0401 4.23815,-0.88011 5.80793,-1.61978 32.11108,-11.38056 51.31906,-52.29015 67.52941,-82.67146 7.56372,-13.49923 20.49267,-29.61349 31.52297,-40.31812 3.82763,-2.99701 9.33808,-6.85725 12.24545,-8.57832 2.90728,-1.72111 7.41723,-4.66531 10.02192,-6.54276 53.73761,-20.94905 59.00113,51.3845 47.0119,85.55035 -9.36351,15.05357 -26.09742,24.58972 -39.28009,36.33631 -3.0078,3.24407 -15.21309,11.16678 -21.64411,14.04962 -1.89162,0.84791 -5.29671,2.94297 -7.56709,4.65555 -2.27029,1.71262 -9.51345,4.99463 -16.09578,7.2934 -6.58244,2.29874 -13.22022,4.93271 -14.75067,5.85331 -1.53044,0.92056 -5.47311,1.64266 -8.76167,1.60456 -5.37881,-0.0623 -6.57764,0.38945 -11.94212,4.49961 -3.27975,2.51282 -7.26762,5.93544 -8.86208,7.60576 -8.17071,8.28033 -18.72715,12.58127 -26.9093,20.81538 -1.85645,2.05865 -5.56096,4.43252 -9.07879,5.81797 -5.93758,2.49725 -8.57941,7.23987 -14.79729,9.26916 -15.00067,7.63399 -37.86,21.44631 -54.9568,13.30204 z M 484.36309,343.26364 c -1.33746,-2.76171 -2.48691,-5.90442 -3.08723,-6.19697 -2.01695,-0.9829 -0.34157,-37.33733 3.53468,-46.50776 4.10722,-9.71699 4.8108,-10.84003 9.74363,-15.5523 2.92417,-2.79351 6.6172,-6.58104 8.20671,-8.41675 3.17272,-3.66397 11.55304,-7.04457 25.4795,-13.03219 8.67471,-3.72965 5.03355,-2.30327 7.89599,-4.83253 2.86245,-2.52926 1.77514,-1.14088 3.55381,-5.28451 2.60894,-6.07785 1.15916,-4.0708 4.15193,-11.03233 3.4953,-8.13052 1.73755,-11.15583 7.26874,-22.61069 8.64919,-17.91209 9.17715,-18.55927 14.46172,-23.39845 2.99552,-2.74292 4.22489,-4.46999 5.22918,-6.50802 1.27772,-2.59294 6.0004,-9.40389 8.48058,-11.96929 5.53584,-5.72607 5.27974,-6.09308 10.98976,-13.95704 5.71003,-7.86395 7.70614,-9.37597 11.85034,-17.4988 3.47358,-6.80838 5.73086,-8.15024 8.71714,-13.01541 5.28319,-8.60741 7.35939,-5.72701 15.4608,-8.55571 7.7663,-2.71175 26.4033,3.31008 30.8663,5.54283 5.32735,2.66515 10.20811,8.14675 10.95418,9.49202 0.74597,1.34523 1.27813,8.32968 0.98452,14.71774 -0.30576,6.65219 -0.73159,4.42245 -2.9825,11.85586 -2.25092,7.43339 -1.64912,8.65381 -6.02118,17.87773 -6.44884,13.60543 -9.3404,18.40395 -10.87699,19.29581 -2.95332,1.71424 -10.18104,10.58168 -13.61267,16.70084 -2.47651,4.41625 -4.96695,6.81211 -15.75449,15.15693 -8.21603,6.35562 -14.52825,10.46182 -17.59421,11.44524 -2.62977,0.84349 -6.67297,3.11478 -8.9848,5.04734 -2.31193,1.93251 -8.29507,5.12168 -13.29602,7.08699 -5.00111,1.9649 -10.21978,4.42796 -11.5975,5.47252 -4.88051,3.7005 -9.35752,10.17787 -12.45271,18.01671 -7.88616,19.97271 -16.87337,39.86957 -22.72681,50.31509 -6.25219,11.15715 -6.67617,11.68362 -14.04695,17.43836 -7.97812,6.22899 -15.39839,9.14284 -23.68951,9.30263 -5.80151,0.11186 -8.30227,-0.60659 -11.10595,-6.39592 z"
     style="fill:#29c347;fill-opacity:1"
     inkscape:connector-curvature="0" />
</svg>
